<svg width="300" height="300" viewBox="0 0 300 300" fill="none" xmlns="http://www.w3.org/2000/svg">
<g clip-path="url(#clip0_235_549)">
<path d="M150 1C180.858 1 205.588 2.65476 225.333 7.04297C245.067 11.4287 259.761 18.5309 270.615 29.3848C281.469 40.2386 288.571 54.9333 292.957 74.667C297.345 94.4122 299 119.142 299 150C299 180.858 297.345 205.588 292.957 225.333C288.571 245.067 281.469 259.761 270.615 270.615C259.761 281.469 245.067 288.571 225.333 292.957C205.588 297.345 180.858 299 150 299C119.142 299 94.4122 297.345 74.667 292.957C54.9333 288.571 40.2386 281.469 29.3848 270.615C18.5309 259.761 11.4287 245.067 7.04297 225.333C2.65476 205.588 1 180.858 1 150C1 119.142 2.65476 94.4122 7.04297 74.667C11.4287 54.9333 18.5309 40.2386 29.3848 29.3848C40.2386 18.5309 54.9333 11.4287 74.667 7.04297C94.4122 2.65476 119.142 1 150 1Z" fill="white" stroke="#EEEEEE" stroke-width="2"/>
<path d="M203.976 80C216.471 80 224.144 93.6821 217.628 104.344L189.725 150L217.628 195.656C224.144 206.318 216.471 220 203.976 220H96.0245C83.5295 220 75.8564 206.318 82.3722 195.656L110.275 150L82.3722 104.344C75.8564 93.6821 83.5295 80.0001 96.0245 80H203.976ZM131.419 120C127.041 120 124.137 124.537 125.97 128.513L135.182 148.49C135.464 149.103 135.778 149.684 136.115 150.236C135.794 150.761 135.496 151.313 135.225 151.893L126.053 171.452C124.187 175.431 127.09 180 131.485 180H167.938C172.332 180 175.236 175.431 173.37 171.452L164.197 151.893C163.926 151.314 163.628 150.762 163.307 150.237C163.645 149.685 163.959 149.103 164.241 148.49L173.453 128.513C175.286 124.537 172.383 120 168.005 120H131.419Z" fill="#F4AA41"/>
</g>
<defs>
<clipPath id="clip0_235_549">
<rect width="300" height="300" fill="white"/>
</clipPath>
</defs>
</svg>
