<svg width="300" height="300" viewBox="0 0 300 300" fill="none" xmlns="http://www.w3.org/2000/svg">
<g clip-path="url(#clip0_235_549)">
<path d="M150 1C180.858 1 205.588 2.65476 225.333 7.04297C245.067 11.4287 259.761 18.5309 270.615 29.3848C281.469 40.2386 288.571 54.9333 292.957 74.667C297.345 94.4122 299 119.142 299 150C299 180.858 297.345 205.588 292.957 225.333C288.571 245.067 281.469 259.761 270.615 270.615C259.761 281.469 245.067 288.571 225.333 292.957C205.588 297.345 180.858 299 150 299C119.142 299 94.4122 297.345 74.667 292.957C54.9333 288.571 40.2386 281.469 29.3848 270.615C18.5309 259.761 11.4287 245.067 7.04297 225.333C2.65476 205.588 1 180.858 1 150C1 119.142 2.65476 94.4122 7.04297 74.667C11.4287 54.9333 18.5309 40.2386 29.3848 29.3848C40.2386 18.5309 54.9333 11.4287 74.667 7.04297C94.4122 2.65476 119.142 1 150 1Z" fill="white" stroke="#EEEEEE" stroke-width="2"/>
<path d="M203.976 80C216.471 80.0001 224.144 93.6822 217.629 104.344L189.725 150L217.629 195.656C224.144 206.318 216.471 220 203.976 220H96.0252C83.5301 220 75.857 206.318 82.3728 195.656L110.275 150L82.3728 104.344C75.857 93.6821 83.5301 80 96.0252 80H203.976ZM132.147 120.001C127.532 120.002 124.645 124.996 126.948 128.995L136.137 144.95C137.361 147.074 138.951 148.774 140.761 150.054C138.951 151.333 137.361 153.034 136.137 155.157L126.948 171.112C124.645 175.112 127.532 180.106 132.147 180.106H167.857C172.473 180.106 175.36 175.112 173.056 171.112L163.867 155.157C162.644 153.033 161.053 151.333 159.243 150.054C161.053 148.774 162.644 147.074 163.867 144.95L173.056 128.995C175.36 124.995 172.473 120.001 167.857 120.001H132.147Z" fill="#F4AA41"/>
</g>
<defs>
<clipPath id="clip0_235_549">
<rect width="300" height="300" fill="white"/>
</clipPath>
</defs>
</svg>
